<svg width="24" height="25" viewBox="0 0 24 25" fill="none" xmlns="http://www.w3.org/2000/svg">
<path d="M11.9999 2.59033C6.41263 2.59033 1.86692 7.13867 1.86692 12.7293C1.86692 18.3202 6.41263 22.8683 11.9999 22.8683C17.5874 22.8683 22.1332 18.3202 22.1332 12.7293C22.1331 7.13867 17.5872 2.59033 11.9999 2.59033ZM11.9999 21.8683C6.96365 21.8683 2.86634 17.7687 2.86634 12.7293C2.86634 7.69017 6.96365 3.59033 11.9999 3.59033C17.0362 3.59033 21.1338 7.69017 21.1338 12.7293C21.1336 17.7687 17.0362 21.8683 11.9999 21.8683Z" fill="white"/>
<path d="M15.1233 6.78028H12.9252C12.9202 6.78024 12.9152 6.78046 12.9102 6.78094C10.691 6.78794 10.4012 8.33844 10.4 9.69361C10.3969 9.70644 10.3954 9.71958 10.3953 9.73278V10.6841H8.87655C8.83237 10.6841 8.79001 10.7017 8.75877 10.7329C8.72753 10.7642 8.70998 10.8066 8.70998 10.8508V13.1969C8.70998 13.2411 8.72753 13.2835 8.75877 13.3148C8.79001 13.3461 8.83237 13.3636 8.87655 13.3636H10.3953V18.5121C10.3953 18.5563 10.4129 18.5987 10.4441 18.63C10.4754 18.6612 10.5177 18.6788 10.5619 18.6788H12.7785C12.8226 18.6788 12.865 18.6612 12.8963 18.63C12.9275 18.5987 12.945 18.5563 12.945 18.5121V13.3638H15.1231C15.1673 13.3638 15.2097 13.3462 15.2409 13.315C15.2721 13.2837 15.2897 13.2413 15.2897 13.1971V10.8509C15.2897 10.8067 15.2721 10.7643 15.2409 10.7331C15.2097 10.7018 15.1673 10.6843 15.1231 10.6843H12.7785V9.42311H15.1231C15.1673 9.42311 15.2097 9.40555 15.2409 9.37429C15.2721 9.34304 15.2897 9.30065 15.2897 9.25644V6.94694C15.2897 6.92506 15.2854 6.9034 15.2771 6.88318C15.2687 6.86296 15.2565 6.84458 15.241 6.8291C15.2256 6.81362 15.2072 6.80134 15.187 6.79297C15.1668 6.78459 15.1452 6.78028 15.1233 6.78028Z" fill="white"/>
</svg>
