<svg width="40" height="43" viewBox="0 0 40 43" fill="none" xmlns="http://www.w3.org/2000/svg">
<path d="M8.54248 8.75H10.6305C11.9265 8.75 12.9465 9.866 12.8385 11.15L11.8425 23.102C11.6745 25.058 13.2225 26.738 15.1905 26.738H27.9705C29.6985 26.738 31.2105 25.322 31.3425 23.606L31.9905 14.606C32.1345 12.614 30.6225 10.994 28.6185 10.994H13.1265" stroke="#000001" stroke-width="1.5" stroke-miterlimit="10" stroke-linecap="round" stroke-linejoin="round"/>
<path d="M26.185 34.25C27.0134 34.25 27.685 33.5784 27.685 32.75C27.685 31.9216 27.0134 31.25 26.185 31.25C25.3565 31.25 24.685 31.9216 24.685 32.75C24.685 33.5784 25.3565 34.25 26.185 34.25Z" stroke="#000001" stroke-width="1.5" stroke-miterlimit="10" stroke-linecap="round" stroke-linejoin="round"/>
<path d="M16.585 34.25C17.4134 34.25 18.085 33.5784 18.085 32.75C18.085 31.9216 17.4134 31.25 16.585 31.25C15.7565 31.25 15.085 31.9216 15.085 32.75C15.085 33.5784 15.7565 34.25 16.585 34.25Z" stroke="#000001" stroke-width="1.5" stroke-miterlimit="10" stroke-linecap="round" stroke-linejoin="round"/>
<path d="M17.485 17.45H31.885" stroke="#000001" stroke-width="1.5" stroke-miterlimit="10" stroke-linecap="round" stroke-linejoin="round"/>
</svg>
