<svg width="135" height="33" viewBox="0 0 135 33" fill="none" xmlns="http://www.w3.org/2000/svg">
<path d="M9 22.788C7.784 22.788 6.688 22.564 5.712 22.116C4.752 21.652 3.936 21.028 3.264 20.244C2.592 19.444 2.08 18.516 1.728 17.46C1.376 16.404 1.2 15.276 1.2 14.076C1.2 12.428 1.512 10.956 2.136 9.66C2.76 8.348 3.648 7.316 4.8 6.564C5.968 5.796 7.368 5.412 9 5.412C10.216 5.412 11.304 5.636 12.264 6.084C13.24 6.532 14.064 7.156 14.736 7.956C15.408 8.756 15.92 9.676 16.272 10.716C16.64 11.756 16.824 12.876 16.824 14.076C16.824 15.324 16.648 16.412 16.296 17.34C15.944 18.252 15.528 19.044 15.048 19.716L17.184 20.892L16.152 22.788L13.824 21.06C13.232 21.556 12.536 21.972 11.736 22.308C10.936 22.628 10.024 22.788 9 22.788ZM8.952 20.82C9.608 20.82 10.2 20.74 10.728 20.58C11.272 20.42 11.736 20.22 12.12 19.98L10.296 18.828L11.256 17.076L13.416 18.636C13.8 18.012 14.072 17.332 14.232 16.596C14.408 15.844 14.496 15.004 14.496 14.076C14.496 13.212 14.368 12.38 14.112 11.58C13.872 10.78 13.512 10.068 13.032 9.444C12.568 8.804 11.992 8.3 11.304 7.932C10.632 7.564 9.864 7.38 9 7.38C7.848 7.38 6.864 7.676 6.048 8.268C5.232 8.844 4.608 9.636 4.176 10.644C3.744 11.652 3.528 12.796 3.528 14.076C3.528 14.94 3.648 15.78 3.888 16.596C4.128 17.396 4.48 18.116 4.944 18.756C5.408 19.396 5.976 19.9 6.648 20.268C7.32 20.636 8.088 20.82 8.952 20.82ZM26.2738 22.788C24.3378 22.788 22.8178 22.212 21.7138 21.06C20.6098 19.908 20.0578 18.26 20.0578 16.116V5.7H22.3378V15.756C22.3378 17.356 22.6658 18.596 23.3218 19.476C23.9778 20.356 24.9618 20.796 26.2738 20.796C27.6338 20.796 28.6498 20.372 29.3218 19.524C29.9938 18.66 30.3298 17.404 30.3298 15.756V5.7H32.5378V16.02C32.5378 17.428 32.2738 18.644 31.7458 19.668C31.2338 20.676 30.5058 21.452 29.5618 21.996C28.6338 22.524 27.5378 22.788 26.2738 22.788ZM36.4959 22.5V5.7H38.7759V22.5H36.4959ZM49.5613 22.788C48.1053 22.788 46.8173 22.444 45.6973 21.756C44.5773 21.052 43.7053 20.06 43.0813 18.78C42.4573 17.484 42.1453 15.948 42.1453 14.172C42.1453 12.46 42.4573 10.948 43.0813 9.636C43.7213 8.308 44.6173 7.276 45.7693 6.54C46.9373 5.788 48.2973 5.412 49.8493 5.412C50.6493 5.412 51.3773 5.492 52.0333 5.652C52.6893 5.796 53.3053 6.004 53.8813 6.276L53.1853 8.196C52.6893 7.956 52.1773 7.764 51.6493 7.62C51.1373 7.476 50.5293 7.404 49.8253 7.404C48.8013 7.404 47.8813 7.668 47.0653 8.196C46.2653 8.724 45.6333 9.484 45.1693 10.476C44.7053 11.468 44.4733 12.668 44.4733 14.076C44.4733 15.42 44.6973 16.596 45.1453 17.604C45.6093 18.612 46.2413 19.396 47.0413 19.956C47.8573 20.516 48.7853 20.796 49.8253 20.796C50.6093 20.796 51.2893 20.7 51.8653 20.508C52.4413 20.316 53.0013 20.068 53.5453 19.764L54.2413 21.66C53.6493 21.98 52.9693 22.252 52.2013 22.476C51.4493 22.684 50.5693 22.788 49.5613 22.788ZM67.7953 22.788L59.6353 14.772V22.5H57.3553V5.7H59.6353V13.356L66.7873 5.628L68.3233 7.044L61.7713 13.86L69.3793 21.156L67.7953 22.788ZM71.7694 22.5V5.7H81.7294V7.668H74.0494V12.804H80.4574V14.676H74.0494V22.5H71.7694ZM90.6122 22.788C89.3642 22.788 88.2522 22.564 87.2762 22.116C86.3002 21.652 85.4682 21.028 84.7802 20.244C84.1082 19.444 83.5882 18.516 83.2202 17.46C82.8682 16.404 82.6922 15.276 82.6922 14.076C82.6922 12.428 83.0042 10.956 83.6282 9.66C84.2682 8.348 85.1802 7.316 86.3642 6.564C87.5482 5.796 88.9642 5.412 90.6122 5.412C91.8442 5.412 92.9482 5.636 93.9242 6.084C94.9162 6.532 95.7562 7.156 96.4442 7.956C97.1322 8.756 97.6522 9.676 98.0042 10.716C98.3722 11.756 98.5562 12.876 98.5562 14.076C98.5562 15.276 98.3722 16.404 98.0042 17.46C97.6522 18.516 97.1322 19.444 96.4442 20.244C95.7562 21.028 94.9242 21.652 93.9482 22.116C92.9722 22.564 91.8602 22.788 90.6122 22.788ZM90.6122 20.82C91.8442 20.82 92.8762 20.524 93.7082 19.932C94.5402 19.34 95.1642 18.54 95.5802 17.532C96.0122 16.508 96.2282 15.356 96.2282 14.076C96.2282 13.212 96.1002 12.38 95.8442 11.58C95.5882 10.78 95.2202 10.068 94.7402 9.444C94.2602 8.804 93.6682 8.3 92.9642 7.932C92.2762 7.564 91.4922 7.38 90.6122 7.38C89.4442 7.38 88.4362 7.676 87.5882 8.268C86.7562 8.86 86.1162 9.66 85.6682 10.668C85.2362 11.676 85.0202 12.812 85.0202 14.076C85.0202 14.94 85.1402 15.78 85.3802 16.596C85.6362 17.396 86.0042 18.116 86.4842 18.756C86.9642 19.396 87.5482 19.9 88.2362 20.268C88.9402 20.636 89.7322 20.82 90.6122 20.82ZM108.87 22.788C107.622 22.788 106.51 22.564 105.534 22.116C104.558 21.652 103.726 21.028 103.038 20.244C102.366 19.444 101.846 18.516 101.478 17.46C101.126 16.404 100.95 15.276 100.95 14.076C100.95 12.428 101.262 10.956 101.886 9.66C102.526 8.348 103.438 7.316 104.622 6.564C105.806 5.796 107.222 5.412 108.87 5.412C110.102 5.412 111.206 5.636 112.182 6.084C113.174 6.532 114.014 7.156 114.702 7.956C115.39 8.756 115.91 9.676 116.262 10.716C116.63 11.756 116.814 12.876 116.814 14.076C116.814 15.276 116.63 16.404 116.262 17.46C115.91 18.516 115.39 19.444 114.702 20.244C114.014 21.028 113.182 21.652 112.206 22.116C111.23 22.564 110.118 22.788 108.87 22.788ZM108.87 20.82C110.102 20.82 111.134 20.524 111.966 19.932C112.798 19.34 113.422 18.54 113.838 17.532C114.27 16.508 114.486 15.356 114.486 14.076C114.486 13.212 114.358 12.38 114.102 11.58C113.846 10.78 113.478 10.068 112.998 9.444C112.518 8.804 111.926 8.3 111.222 7.932C110.534 7.564 109.75 7.38 108.87 7.38C107.702 7.38 106.694 7.676 105.846 8.268C105.014 8.86 104.374 9.66 103.926 10.668C103.494 11.676 103.278 12.812 103.278 14.076C103.278 14.94 103.398 15.78 103.638 16.596C103.894 17.396 104.262 18.116 104.742 18.756C105.222 19.396 105.806 19.9 106.494 20.268C107.198 20.636 107.99 20.82 108.87 20.82ZM124.584 22.692C123.672 22.692 122.872 22.668 122.184 22.62C121.512 22.572 120.84 22.516 120.168 22.452V5.748C120.92 5.668 121.656 5.612 122.376 5.58C123.096 5.532 123.92 5.508 124.848 5.508C126.288 5.508 127.528 5.732 128.568 6.18C129.624 6.628 130.488 7.244 131.16 8.028C131.848 8.812 132.352 9.724 132.672 10.764C133.008 11.788 133.176 12.892 133.176 14.076C133.176 15.244 133.008 16.348 132.672 17.388C132.336 18.428 131.816 19.348 131.112 20.148C130.424 20.932 129.536 21.556 128.448 22.02C127.376 22.468 126.088 22.692 124.584 22.692ZM124.656 20.7C126.096 20.7 127.272 20.42 128.184 19.86C129.096 19.3 129.768 18.524 130.2 17.532C130.632 16.524 130.848 15.372 130.848 14.076C130.848 12.924 130.632 11.844 130.2 10.836C129.768 9.828 129.104 9.02 128.208 8.412C127.312 7.788 126.168 7.476 124.776 7.476C124.312 7.476 123.888 7.492 123.504 7.524C123.12 7.54 122.768 7.564 122.448 7.596V20.58C122.784 20.628 123.136 20.66 123.504 20.676C123.872 20.692 124.256 20.7 124.656 20.7Z" fill="#00A000"/>
<rect y="30.5" width="135" height="2" fill="#00A000"/>
</svg>
