<svg width="133" height="19" viewBox="0 0 133 19" fill="none" xmlns="http://www.w3.org/2000/svg">
<path d="M8 18.0175C6.784 18.0175 5.688 17.7935 4.712 17.3455C3.752 16.8815 2.936 16.2575 2.264 15.4735C1.592 14.6735 1.08 13.7455 0.728 12.6895C0.376 11.6335 0.2 10.5055 0.2 9.30549C0.2 7.65749 0.512 6.18549 1.136 4.88949C1.76 3.57749 2.648 2.54549 3.8 1.79349C4.968 1.02549 6.368 0.641492 8 0.641492C9.216 0.641492 10.304 0.865492 11.264 1.31349C12.24 1.76149 13.064 2.38549 13.736 3.18549C14.408 3.98549 14.92 4.90549 15.272 5.94549C15.64 6.98549 15.824 8.10549 15.824 9.30549C15.824 10.5535 15.648 11.6415 15.296 12.5695C14.944 13.4815 14.528 14.2735 14.048 14.9455L16.184 16.1215L15.152 18.0175L12.824 16.2895C12.232 16.7855 11.536 17.2015 10.736 17.5375C9.936 17.8575 9.024 18.0175 8 18.0175ZM7.952 16.0495C8.608 16.0495 9.2 15.9695 9.728 15.8095C10.272 15.6495 10.736 15.4495 11.12 15.2095L9.296 14.0575L10.256 12.3055L12.416 13.8655C12.8 13.2415 13.072 12.5615 13.232 11.8255C13.408 11.0735 13.496 10.2335 13.496 9.30549C13.496 8.44149 13.368 7.60949 13.112 6.80949C12.872 6.00949 12.512 5.29749 12.032 4.67349C11.568 4.03349 10.992 3.52949 10.304 3.16149C9.632 2.79349 8.864 2.60949 8 2.60949C6.848 2.60949 5.864 2.90549 5.048 3.49749C4.232 4.07349 3.608 4.86549 3.176 5.87349C2.744 6.88149 2.528 8.02549 2.528 9.30549C2.528 10.1695 2.648 11.0095 2.888 11.8255C3.128 12.6255 3.48 13.3455 3.944 13.9855C4.408 14.6255 4.976 15.1295 5.648 15.4975C6.32 15.8655 7.088 16.0495 7.952 16.0495ZM25.2738 18.0175C23.3378 18.0175 21.8178 17.4415 20.7138 16.2895C19.6098 15.1375 19.0578 13.4895 19.0578 11.3455V0.929491H21.3378V10.9855C21.3378 12.5855 21.6658 13.8255 22.3218 14.7055C22.9778 15.5855 23.9618 16.0255 25.2738 16.0255C26.6338 16.0255 27.6498 15.6015 28.3218 14.7535C28.9938 13.8895 29.3298 12.6335 29.3298 10.9855V0.929491H31.5378V11.2495C31.5378 12.6575 31.2738 13.8735 30.7458 14.8975C30.2338 15.9055 29.5058 16.6815 28.5618 17.2255C27.6338 17.7535 26.5378 18.0175 25.2738 18.0175ZM35.4959 17.7295V0.929491H37.7759V17.7295H35.4959ZM48.5613 18.0175C47.1053 18.0175 45.8173 17.6735 44.6973 16.9855C43.5773 16.2815 42.7053 15.2895 42.0813 14.0095C41.4573 12.7135 41.1453 11.1775 41.1453 9.40149C41.1453 7.68949 41.4573 6.17749 42.0813 4.86549C42.7213 3.53749 43.6173 2.50549 44.7693 1.76949C45.9373 1.01749 47.2973 0.641492 48.8493 0.641492C49.6493 0.641492 50.3773 0.721492 51.0333 0.881492C51.6893 1.02549 52.3053 1.23349 52.8813 1.50549L52.1853 3.42549C51.6893 3.18549 51.1773 2.99349 50.6493 2.84949C50.1373 2.70549 49.5293 2.63349 48.8253 2.63349C47.8013 2.63349 46.8813 2.89749 46.0653 3.42549C45.2653 3.95349 44.6333 4.71349 44.1693 5.70549C43.7053 6.69749 43.4733 7.89749 43.4733 9.30549C43.4733 10.6495 43.6973 11.8255 44.1453 12.8335C44.6093 13.8415 45.2413 14.6255 46.0413 15.1855C46.8573 15.7455 47.7853 16.0255 48.8253 16.0255C49.6093 16.0255 50.2893 15.9295 50.8653 15.7375C51.4413 15.5455 52.0013 15.2975 52.5453 14.9935L53.2413 16.8895C52.6493 17.2095 51.9693 17.4815 51.2013 17.7055C50.4493 17.9135 49.5693 18.0175 48.5613 18.0175ZM66.7953 18.0175L58.6353 10.0015V17.7295H56.3553V0.929491H58.6353V8.58549L65.7873 0.857492L67.3233 2.27349L60.7713 9.08949L68.3793 16.3855L66.7953 18.0175ZM70.7694 17.7295V0.929491H80.7294V2.89749H73.0494V8.03349H79.4574V9.90549H73.0494V17.7295H70.7694ZM89.6122 18.0175C88.3642 18.0175 87.2522 17.7935 86.2762 17.3455C85.3002 16.8815 84.4682 16.2575 83.7802 15.4735C83.1082 14.6735 82.5882 13.7455 82.2202 12.6895C81.8682 11.6335 81.6922 10.5055 81.6922 9.30549C81.6922 7.65749 82.0042 6.18549 82.6282 4.88949C83.2682 3.57749 84.1802 2.54549 85.3642 1.79349C86.5482 1.02549 87.9642 0.641492 89.6122 0.641492C90.8442 0.641492 91.9482 0.865492 92.9242 1.31349C93.9162 1.76149 94.7562 2.38549 95.4442 3.18549C96.1322 3.98549 96.6522 4.90549 97.0042 5.94549C97.3722 6.98549 97.5562 8.10549 97.5562 9.30549C97.5562 10.5055 97.3722 11.6335 97.0042 12.6895C96.6522 13.7455 96.1322 14.6735 95.4442 15.4735C94.7562 16.2575 93.9242 16.8815 92.9482 17.3455C91.9722 17.7935 90.8602 18.0175 89.6122 18.0175ZM89.6122 16.0495C90.8442 16.0495 91.8762 15.7535 92.7082 15.1615C93.5402 14.5695 94.1642 13.7695 94.5802 12.7615C95.0122 11.7375 95.2282 10.5855 95.2282 9.30549C95.2282 8.44149 95.1002 7.60949 94.8442 6.80949C94.5882 6.00949 94.2202 5.29749 93.7402 4.67349C93.2602 4.03349 92.6682 3.52949 91.9642 3.16149C91.2762 2.79349 90.4922 2.60949 89.6122 2.60949C88.4442 2.60949 87.4362 2.90549 86.5882 3.49749C85.7562 4.08949 85.1162 4.88949 84.6682 5.89749C84.2362 6.90549 84.0202 8.04149 84.0202 9.30549C84.0202 10.1695 84.1402 11.0095 84.3802 11.8255C84.6362 12.6255 85.0042 13.3455 85.4842 13.9855C85.9642 14.6255 86.5482 15.1295 87.2362 15.4975C87.9402 15.8655 88.7322 16.0495 89.6122 16.0495ZM107.87 18.0175C106.622 18.0175 105.51 17.7935 104.534 17.3455C103.558 16.8815 102.726 16.2575 102.038 15.4735C101.366 14.6735 100.846 13.7455 100.478 12.6895C100.126 11.6335 99.95 10.5055 99.95 9.30549C99.95 7.65749 100.262 6.18549 100.886 4.88949C101.526 3.57749 102.438 2.54549 103.622 1.79349C104.806 1.02549 106.222 0.641492 107.87 0.641492C109.102 0.641492 110.206 0.865492 111.182 1.31349C112.174 1.76149 113.014 2.38549 113.702 3.18549C114.39 3.98549 114.91 4.90549 115.262 5.94549C115.63 6.98549 115.814 8.10549 115.814 9.30549C115.814 10.5055 115.63 11.6335 115.262 12.6895C114.91 13.7455 114.39 14.6735 113.702 15.4735C113.014 16.2575 112.182 16.8815 111.206 17.3455C110.23 17.7935 109.118 18.0175 107.87 18.0175ZM107.87 16.0495C109.102 16.0495 110.134 15.7535 110.966 15.1615C111.798 14.5695 112.422 13.7695 112.838 12.7615C113.27 11.7375 113.486 10.5855 113.486 9.30549C113.486 8.44149 113.358 7.60949 113.102 6.80949C112.846 6.00949 112.478 5.29749 111.998 4.67349C111.518 4.03349 110.926 3.52949 110.222 3.16149C109.534 2.79349 108.75 2.60949 107.87 2.60949C106.702 2.60949 105.694 2.90549 104.846 3.49749C104.014 4.08949 103.374 4.88949 102.926 5.89749C102.494 6.90549 102.278 8.04149 102.278 9.30549C102.278 10.1695 102.398 11.0095 102.638 11.8255C102.894 12.6255 103.262 13.3455 103.742 13.9855C104.222 14.6255 104.806 15.1295 105.494 15.4975C106.198 15.8655 106.99 16.0495 107.87 16.0495ZM123.584 17.9215C122.672 17.9215 121.872 17.8975 121.184 17.8495C120.512 17.8015 119.84 17.7455 119.168 17.6815V0.977492C119.92 0.897492 120.656 0.841492 121.376 0.809491C122.096 0.761492 122.92 0.737492 123.848 0.737492C125.288 0.737492 126.528 0.961492 127.568 1.40949C128.624 1.85749 129.488 2.47349 130.16 3.25749C130.848 4.04149 131.352 4.95349 131.672 5.99349C132.008 7.01749 132.176 8.12149 132.176 9.30549C132.176 10.4735 132.008 11.5775 131.672 12.6175C131.336 13.6575 130.816 14.5775 130.112 15.3775C129.424 16.1615 128.536 16.7855 127.448 17.2495C126.376 17.6975 125.088 17.9215 123.584 17.9215ZM123.656 15.9295C125.096 15.9295 126.272 15.6495 127.184 15.0895C128.096 14.5295 128.768 13.7535 129.2 12.7615C129.632 11.7535 129.848 10.6015 129.848 9.30549C129.848 8.15349 129.632 7.07349 129.2 6.06549C128.768 5.05749 128.104 4.24949 127.208 3.64149C126.312 3.01749 125.168 2.70549 123.776 2.70549C123.312 2.70549 122.888 2.72149 122.504 2.75349C122.12 2.76949 121.768 2.79349 121.448 2.82549V15.8095C121.784 15.8575 122.136 15.8895 122.504 15.9055C122.872 15.9215 123.256 15.9295 123.656 15.9295Z" fill="white"/>
</svg>
