<svg width="24" height="25" viewBox="0 0 24 25" fill="none" xmlns="http://www.w3.org/2000/svg">
<path d="M11.9999 2.59033C6.41264 2.59033 1.86693 7.13867 1.86693 12.7293C1.86693 18.3202 6.41264 22.8683 11.9999 22.8683C17.5874 22.8683 22.1332 18.3202 22.1332 12.7293C22.1331 7.13867 17.5872 2.59033 11.9999 2.59033ZM11.9999 21.8683C6.96366 21.8683 2.86635 17.7687 2.86635 12.7293C2.86635 7.69017 6.96366 3.59033 11.9999 3.59033C17.0362 3.59033 21.1338 7.69017 21.1338 12.7293C21.1337 17.7687 17.0362 21.8683 11.9999 21.8683Z" fill="white"/>
<path d="M16.5251 9.42597C16.758 9.30564 17.3157 8.94814 17.5785 8.1808C17.5785 8.1808 16.9451 8.63914 16.0829 8.69314L16.0672 8.7018C15.8413 8.45443 15.5663 8.25695 15.2597 8.12198C14.9532 7.98701 14.6218 7.91753 14.2869 7.91797C12.953 7.91797 11.8718 8.99997 11.8718 10.3346C11.8718 10.5371 11.897 10.7338 11.9441 10.9218L11.9325 10.9043C11.9325 10.9043 9.34561 11.0526 6.90685 8.38314C6.90685 8.38314 5.82864 10.2166 7.67474 11.6188C7.27047 11.6861 6.55655 11.3221 6.55655 11.3221C6.55655 11.3221 6.59686 13.2498 8.51009 13.7218C8.20027 13.8028 7.62077 13.8295 7.43221 13.7488C7.43221 13.7488 7.71505 15.2181 9.66892 15.4745C9.17038 15.7576 8.24075 16.6203 6.13863 16.4585C6.13863 16.4585 7.64809 17.6986 10.4506 17.5236C13.2532 17.3486 15.2879 15.4608 16.1097 13.4656C16.9316 11.4705 16.7029 10.3345 16.7029 10.3345C16.7029 10.3345 17.3896 9.9738 17.8617 9.11114C17.6437 9.17647 16.835 9.37414 16.534 9.4473C16.5309 9.44023 16.528 9.43312 16.5251 9.42597Z" fill="white"/>
</svg>
